<svg version="1.2" xmlns="http://www.w3.org/2000/svg" viewBox="0 0 26 26" width="26" height="26">
	<title>08</title>
	<style>
		.s0 { fill: #f49124 } 
	</style>
	<path class="s0" d="m22.8 11.9h-4.3c-0.1 0-0.1 0-0.2 0h-0.2c-0.1 0-0.1 0.1-0.1 0.1-0.1 0-0.1 0.1-0.2 0.1l-0.1 0.1c0 0.1-0.1 0.1-0.1 0.3l-1.8 4.8-4.5-12.2c-0.2-0.5-0.9-0.9-1.4-0.7q-0.5 0.2-0.7 0.7l-2.5 6.8h-3.4c-0.7 0-1.1 0.4-1.1 1.1 0 0.6 0.4 1.1 1.1 1.1h4.2 0.2 0.2c0.1 0 0.1-0.1 0.2-0.1 0.1 0 0.1-0.1 0.2-0.1l0.2-0.1c0-0.2 0.1-0.2 0.1-0.3l1.7-4.8 4.5 12.3c0.2 0.4 0.6 0.8 1 0.8 0.5 0 0.9-0.4 1-0.8l2.5-6.8h3.5c0.6 0 1-0.4 1-1.1 0-0.6-0.4-1.2-1-1.2z"/>
</svg>